PathFileType	4	(X/Y/Z)	F:\PHD\Matlab_Output_Files\Ahelaos\HopStudy\HopDistance\Right\HDR_2\HDR_2.trc
DataRate	CameraRate	NumFrames	NumMarkers	Units	OrigDataRate	OrigDataStartFrame	OrigNumFrames
100.000000	100.000000	10	46	m	100.000000	33	267
Frame#	Times			LFHD			RFHD			LBHD			RBHD			C7			T10			CLAV			STRN			RBAK			LSHO			LELB			LWRA			LWRB			LFIN			RSHO			RELB			RWRA			RWRB			RFIN			LASI			RASI			SACR			RPSI			LPSI			LTHI			LTHI2			LTHI3			LKNE			LTIB			LTIB2			LTIB3			LANK			LHEE			LTOE			LLatFoot			RTHI			RTHI2			RTHI3			RKNE			RTIB			RTIB2			RTIB3			RANK			RHEE			RTOE			RLatFoot
		X1	Y1	Z1	X2	Y2	Z2	X3	Y3	Z3	X4	Y4	Z4	X5	Y5	Z5	X6	Y6	Z6	X7	Y7	Z7	X8	Y8	Z8	X9	Y9	Z9	X10	Y10	Z10	X11	Y11	Z11	X12	Y12	Z12	X13	Y13	Z13	X14	Y14	Z14	X15	Y15	Z15	X16	Y16	Z16	X17	Y17	Z17	X18	Y18	Z18	X19	Y19	Z19	X20	Y20	Z20	X21	Y21	Z21	X22	Y22	Z22	X23	Y23	Z23	X24	Y24	Z24	X25	Y25	Z25	X26	Y26	Z26	X27	Y27	Z27	X28	Y28	Z28	X29	Y29	Z29	X30	Y30	Z30	X31	Y31	Z31	X32	Y32	Z32	X33	Y33	Z33	X34	Y34	Z34	X35	Y35	Z35	X36	Y36	Z36	X37	Y37	Z37	X38	Y38	Z38	X39	Y39	Z39	X40	Y40	Z40	X41	Y41	Z41	X42	Y42	Z42	X43	Y43	Z43	X44	Y44	Z44	X45	Y45	Z45	X46	Y46	Z46

33	0.33	-0.90138	1.6603	0.098067	-0.89785	1.6526	0.21144	-1.0516	1.767	0.10193	-1.0332	1.7406	0.23067	-1.1964	1.6088	0.15026	-1.2811	1.2897	0.136	-1.0703	1.5047	0.15429	-1.0614	1.3398	0.14167	-1.2674	1.5027	0.27237	-1.1546	1.574	-0.023353	-1.2285	1.2208	-0.13724	-1.1154	0.94107	-0.10048	-1.1643	0.92394	-0.15973	-1.1021	0.8731	-0.14589	-1.1311	1.5535	0.3101	-1.2313	1.2028	0.4182	-1.1119	0.92605	0.39866	-1.1736	0.9061	0.43846	-1.1125	0.85596	0.44718	-1.0809	1.0682	0.035542	-1.0923	1.0655	0.27237	-1.278	1.1158	0.13768	-1.2723	1.1275	0.1971	-1.2642	1.1329	0.086206	-1.2309	0.76105	-0.025015	-1.1314	0.77946	-0.034438	-1.1689	0.69837	-0.033891	-1.188	0.52681	-0.014545	-1.2174	0.33781	-0.028603	-1.2821	0.3518	-0.029474	-1.2561	0.29313	-0.025079	-1.2875	0.10941	0.016593	-1.3273	0.1098	0.051987	-1.1451	0.047849	0.013105	-1.2353	0.026728	-0.0095418	-1.1465	0.77129	0.32924	-1.2405	0.7507	0.31034	-1.1781	0.69635	0.32116	-1.1835	0.52864	0.29496	-1.1997	0.32758	0.30092	-1.2649	0.3311	0.30683	-1.2383	0.28224	0.30019	-1.2581	0.10818	0.26275	-1.306	0.10814	0.21103	-1.1243	0.04786	0.2637	-1.2077	0.029667	0.28646
34	0.34	-0.8998	1.6602	0.098898	-0.89642	1.6523	0.21178	-1.0501	1.7667	0.10273	-1.0316	1.7403	0.23135	-1.1951	1.6089	0.15081	-1.2804	1.2899	0.13647	-1.0693	1.5044	0.15482	-1.0605	1.3393	0.1422	-1.2656	1.5028	0.27262	-1.1533	1.574	-0.022863	-1.2281	1.221	-0.13699	-1.1154	0.94108	-0.10045	-1.1645	0.92415	-0.15977	-1.1023	0.87328	-0.146	-1.1296	1.5531	0.31066	-1.2311	1.2028	0.4184	-1.1121	0.92563	0.39826	-1.1738	0.90573	0.43811	-1.1127	0.85568	0.44687	-1.0809	1.0682	0.035514	-1.092	1.0656	0.27257	-1.2778	1.116	0.13787	-1.2721	1.1276	0.19731	-1.264	1.133	0.086371	-1.231	0.76108	-0.024925	-1.1315	0.77945	-0.034339	-1.1691	0.69841	-0.033828	-1.1883	0.52696	-0.01435	-1.2175	0.33785	-0.028593	-1.2821	0.35188	-0.029472	-1.2561	0.29318	-0.025013	-1.2875	0.10944	0.016576	-1.3273	0.10978	0.051993	-1.1451	0.04781	0.013102	-1.2353	0.026736	-0.0095684	-1.1465	0.77126	0.32936	-1.2404	0.75071	0.31042	-1.1781	0.69638	0.32125	-1.1834	0.52859	0.29495	-1.1998	0.32735	0.30069	-1.2648	0.33117	0.30678	-1.2383	0.28217	0.30013	-1.2582	0.10778	0.26232	-1.3059	0.10794	0.21076	-1.1243	0.047852	0.26372	-1.2077	0.029643	0.28644
35	0.35	-0.89842	1.6602	0.098923	-0.89493	1.652	0.21227	-1.0487	1.7664	0.10305	-1.0301	1.74	0.23208	-1.1936	1.609	0.15125	-1.28	1.2902	0.13675	-1.0683	1.504	0.15505	-1.0602	1.3391	0.14242	-1.2646	1.5029	0.2731	-1.1521	1.574	-0.022352	-1.2275	1.2206	-0.13654	-1.1157	0.94115	-0.10049	-1.1646	0.92426	-0.15978	-1.1025	0.87334	-0.14598	-1.1285	1.5528	0.31102	-1.2307	1.2028	0.41869	-1.1121	0.92547	0.39819	-1.174	0.90544	0.43782	-1.1129	0.85538	0.44654	-1.0808	1.0679	0.035825	-1.0917	1.0656	0.27295	-1.2776	1.1161	0.13816	-1.2719	1.1278	0.19759	-1.2638	1.1332	0.086669	-1.231	0.761	-0.0248	-1.1316	0.77949	-0.034255	-1.1692	0.69843	-0.033774	-1.1883	0.52698	-0.014299	-1.2176	0.33796	-0.028546	-1.2823	0.3519	-0.029285	-1.2563	0.29327	-0.024824	-1.2876	0.10945	0.016624	-1.3274	0.10977	0.052034	-1.1452	0.047811	0.013082	-1.2354	0.026701	-0.0095577	-1.1464	0.77122	0.32943	-1.2404	0.75063	0.31049	-1.178	0.69632	0.32133	-1.1833	0.52874	0.29528	-1.1997	0.32742	0.30091	-1.2649	0.33106	0.3067	-1.2383	0.28214	0.30017	-1.2582	0.10766	0.26225	-1.3059	0.10797	0.21075	-1.1243	0.047834	0.26371	-1.2077	0.029605	0.28642
36	0.36	-0.89741	1.6601	0.098853	-0.89329	1.6517	0.21295	-1.0471	1.7661	0.10372	-1.0286	1.7395	0.2325	-1.1923	1.6088	0.15198	-1.2795	1.2904	0.13718	-1.067	1.5039	0.1561	-1.0596	1.3388	0.14288	-1.2634	1.503	0.27346	-1.1505	1.5741	-0.021703	-1.2274	1.2214	-0.13643	-1.1156	0.94114	-0.10031	-1.1647	0.92438	-0.15967	-1.1027	0.87339	-0.146	-1.1273	1.5527	0.31177	-1.2302	1.2026	0.41903	-1.1122	0.92524	0.39817	-1.174	0.90544	0.438	-1.1132	0.85492	0.44621	-1.0811	1.0678	0.035713	-1.0915	1.0655	0.27305	-1.2775	1.1162	0.13843	-1.2718	1.1278	0.19792	-1.2636	1.1334	0.087034	-1.2312	0.76091	-0.024543	-1.1321	0.77919	-0.03432	-1.1694	0.69847	-0.033694	-1.1884	0.527	-0.014218	-1.2177	0.33804	-0.028458	-1.2824	0.35193	-0.029224	-1.2565	0.29345	-0.024722	-1.2876	0.10924	0.016491	-1.3272	0.10993	0.051678	-1.1452	0.047798	0.013072	-1.2354	0.026686	-0.0095543	-1.1463	0.77116	0.32953	-1.2404	0.75061	0.3106	-1.1779	0.69622	0.32143	-1.1832	0.52872	0.29537	-1.1997	0.32723	0.30074	-1.2647	0.3309	0.30664	-1.2383	0.28212	0.30022	-1.2581	0.10798	0.26261	-1.3059	0.10796	0.21075	-1.1243	0.047793	0.26369	-1.2077	0.029577	0.28641
37	0.37	-0.89622	1.6601	0.097134	-0.89175	1.6514	0.21337	-1.0456	1.7658	0.10448	-1.027	1.7392	0.23328	-1.1909	1.6088	0.15259	-1.2789	1.2908	0.13773	-1.0663	1.5027	0.15545	-1.0589	1.3384	0.14334	-1.2621	1.5033	0.27432	-1.1493	1.5741	-0.021145	-1.2268	1.222	-0.13617	-1.1158	0.94112	-0.10012	-1.1647	0.92445	-0.15968	-1.1029	0.87343	-0.14593	-1.1257	1.5523	0.31236	-1.2298	1.2026	0.41939	-1.1124	0.92496	0.39808	-1.1741	0.90525	0.43799	-1.1135	0.85445	0.44592	-1.0813	1.0677	0.035717	-1.0913	1.0653	0.2732	-1.2774	1.1163	0.13877	-1.2716	1.128	0.19819	-1.2635	1.1335	0.087396	-1.2313	0.76104	-0.024381	-1.1319	0.77962	-0.033985	-1.1695	0.69848	-0.033561	-1.1884	0.52701	-0.014115	-1.2178	0.33827	-0.028411	-1.2825	0.35202	-0.029101	-1.2566	0.29353	-0.024666	-1.2876	0.10923	0.016515	-1.3273	0.10981	0.052095	-1.1452	0.047782	0.013042	-1.2353	0.026656	-0.0096261	-1.1462	0.77111	0.32963	-1.2403	0.75053	0.31068	-1.1779	0.69617	0.32163	-1.1834	0.52844	0.29517	-1.1996	0.3274	0.30101	-1.2647	0.33088	0.30669	-1.2382	0.28208	0.30025	-1.2581	0.10803	0.26265	-1.3059	0.108	0.2108	-1.1243	0.047918	0.26374	-1.2076	0.029622	0.28642
38	0.38	-0.89488	1.6601	0.09562	-0.89007	1.6511	0.214	-1.0442	1.7655	0.10506	-1.0253	1.7388	0.23415	-1.1894	1.6088	0.15327	-1.2784	1.2912	0.13824	-1.0649	1.5028	0.15661	-1.0582	1.3379	0.1438	-1.2609	1.5034	0.27473	-1.1478	1.5741	-0.020471	-1.2262	1.2224	-0.13585	-1.1159	0.94116	-0.099931	-1.1648	0.92461	-0.15939	-1.1032	0.87344	-0.14582	-1.1245	1.552	0.31289	-1.2294	1.2025	0.41971	-1.1125	0.92474	0.398	-1.1742	0.90524	0.43818	-1.1138	0.85409	0.44575	-1.0814	1.0675	0.035738	-1.0912	1.0652	0.27326	-1.2774	1.1164	0.13915	-1.2714	1.128	0.19847	-1.2632	1.1337	0.087767	-1.2315	0.76109	-0.024035	-1.1323	0.77979	-0.033827	-1.1697	0.69853	-0.033478	-1.1886	0.52702	-0.014053	-1.218	0.33835	-0.028377	-1.2825	0.35219	-0.029164	-1.2567	0.29352	-0.024576	-1.2876	0.10929	0.016533	-1.3274	0.10983	0.052184	-1.1452	0.047878	0.013053	-1.2354	0.026599	-0.0096546	-1.1461	0.77108	0.32977	-1.2403	0.7505	0.31084	-1.1779	0.69612	0.32184	-1.1835	0.52864	0.29529	-1.1996	0.32744	0.30107	-1.2647	0.33076	0.30677	-1.2382	0.28204	0.30029	-1.2581	0.10798	0.26265	-1.306	0.10781	0.21071	-1.1243	0.047925	0.26374	-1.2077	0.029603	0.28641
39	0.39	-0.89154	1.6584	0.10191	-0.8883	1.6507	0.21466	-1.0425	1.7652	0.10572	-1.0238	1.7384	0.23494	-1.1877	1.6087	0.15408	-1.2779	1.2915	0.13864	-1.0637	1.5025	0.15744	-1.0576	1.3377	0.14436	-1.2596	1.5036	0.27559	-1.1464	1.5741	-0.019675	-1.2256	1.2226	-0.13529	-1.1152	0.94142	-0.099429	-1.1648	0.92467	-0.15928	-1.1035	0.87342	-0.14562	-1.1229	1.5518	0.31367	-1.2289	1.2025	0.42022	-1.1127	0.92447	0.39797	-1.1746	0.90451	0.43753	-1.1139	0.85375	0.44568	-1.0814	1.0675	0.035922	-1.0911	1.0652	0.27354	-1.2773	1.1165	0.13966	-1.2713	1.1283	0.19912	-1.2632	1.1337	0.088149	-1.2316	0.76103	-0.023725	-1.1324	0.77981	-0.03356	-1.1698	0.69853	-0.033333	-1.1887	0.52703	-0.013989	-1.2181	0.33843	-0.028294	-1.2825	0.35242	-0.028801	-1.2569	0.29359	-0.024469	-1.2877	0.10929	0.016535	-1.3274	0.10983	0.05218	-1.1453	0.047855	0.012994	-1.2355	0.026687	-0.0096116	-1.1462	0.7712	0.33003	-1.2403	0.75047	0.31107	-1.1779	0.69611	0.32206	-1.1834	0.52847	0.29543	-1.1996	0.32741	0.30117	-1.2647	0.33072	0.30685	-1.2382	0.28207	0.30037	-1.2581	0.10789	0.26262	-1.3059	0.10792	0.2108	-1.1243	0.047933	0.26374	-1.2078	0.029591	0.28639
40	0.4	-0.88974	1.6582	0.10328	-0.8866	1.6504	0.21515	-1.0407	1.7648	0.1066	-1.0221	1.7378	0.23529	-1.1862	1.6088	0.15478	-1.2771	1.2918	0.13948	-1.0628	1.5017	0.15752	-1.057	1.3375	0.14487	-1.2583	1.5036	0.27611	-1.1449	1.5741	-0.018927	-1.2248	1.2226	-0.13404	-1.1158	0.94138	-0.099445	-1.1648	0.92458	-0.15916	-1.1038	0.87338	-0.14542	-1.1214	1.5513	0.31438	-1.2283	1.2025	0.42086	-1.1129	0.92469	0.39855	-1.1746	0.90453	0.4378	-1.1141	0.85346	0.44567	-1.0816	1.0674	0.036003	-1.0908	1.065	0.27388	-1.2771	1.1166	0.14025	-1.271	1.1284	0.1995	-1.2629	1.1339	0.088523	-1.2318	0.7611	-0.023428	-1.1327	0.77978	-0.033349	-1.17	0.69859	-0.033151	-1.1889	0.52707	-0.013846	-1.2182	0.33856	-0.028202	-1.2826	0.35243	-0.028676	-1.257	0.29366	-0.024355	-1.2877	0.10932	0.016606	-1.3274	0.10981	0.052224	-1.1453	0.047842	0.01296	-1.2355	0.026587	-0.0097018	-1.146	0.77095	0.33009	-1.2402	0.75049	0.31135	-1.1779	0.6961	0.32224	-1.1834	0.52845	0.29562	-1.1996	0.32734	0.30123	-1.2647	0.33067	0.30697	-1.2383	0.28203	0.30046	-1.2582	0.10778	0.26256	-1.3059	0.10794	0.21078	-1.1243	0.047938	0.26375	-1.2078	0.029658	0.28645
41	0.41	-0.88852	1.6584	0.10293	-0.88475	1.6499	0.21577	-1.0392	1.7642	0.10738	-1.0202	1.7374	0.23614	-1.1848	1.6088	0.15564	-1.2767	1.2921	0.14002	-1.0614	1.5015	0.15849	-1.0563	1.337	0.14534	-1.257	1.5038	0.27686	-1.1435	1.574	-0.018234	-1.2246	1.2229	-0.13363	-1.1161	0.94113	-0.099294	-1.1649	0.92511	-0.15848	-1.1039	0.87342	-0.14519	-1.1196	1.551	0.31502	-1.2279	1.2024	0.42121	-1.113	0.92405	0.3981	-1.1747	0.90469	0.43833	-1.1143	0.85318	0.44562	-1.0815	1.0673	0.036345	-1.0906	1.0649	0.27423	-1.277	1.1166	0.14079	-1.2708	1.1284	0.20017	-1.2629	1.1342	0.08914	-1.2321	0.76115	-0.023122	-1.1329	0.77982	-0.033157	-1.1702	0.69863	-0.032952	-1.1889	0.52706	-0.013661	-1.2183	0.33858	-0.028115	-1.2825	0.3524	-0.028604	-1.2571	0.29374	-0.024202	-1.2878	0.10949	0.016677	-1.3275	0.10983	0.052261	-1.1453	0.047871	0.01291	-1.2355	0.026613	-0.0096589	-1.1457	0.77083	0.3303	-1.2401	0.75045	0.31164	-1.1778	0.69607	0.32238	-1.1833	0.52854	0.29592	-1.1996	0.32733	0.30143	-1.2647	0.33064	0.30705	-1.2383	0.28197	0.30049	-1.2582	0.10787	0.26265	-1.3059	0.10791	0.2108	-1.1243	0.047963	0.26372	-1.2078	0.029625	0.2864
42	0.42	-0.88685	1.6582	0.10172	-0.88286	1.6496	0.21664	-1.0373	1.7638	0.10805	-1.0183	1.7369	0.23699	-1.1829	1.6088	0.15649	-1.2761	1.2924	0.14081	-1.06	1.5012	0.15933	-1.0553	1.3364	0.14613	-1.2556	1.5039	0.27758	-1.1419	1.574	-0.017335	-1.2241	1.2231	-0.13314	-1.1157	0.94128	-0.098786	-1.1649	0.92528	-0.15785	-1.1041	0.87345	-0.14487	-1.1181	1.5507	0.31578	-1.2273	1.2024	0.42192	-1.1133	0.92364	0.39804	-1.1747	0.90458	0.43859	-1.1145	0.85279	0.44557	-1.0815	1.0673	0.036723	-1.0903	1.0646	0.27435	-1.2769	1.1167	0.14112	-1.2706	1.1285	0.20071	-1.2628	1.1344	0.089809	-1.2323	0.76116	-0.022724	-1.1332	0.77982	-0.032973	-1.1704	0.69863	-0.032618	-1.1889	0.52702	-0.013349	-1.2182	0.33858	-0.027876	-1.2826	0.35242	-0.028482	-1.2571	0.29387	-0.023973	-1.2878	0.10943	0.01667	-1.3276	0.11013	0.052696	-1.1453	0.04784	0.012902	-1.2358	0.026883	-0.0091558	-1.1456	0.77079	0.3305	-1.2399	0.7504	0.31201	-1.1777	0.69598	0.32262	-1.1832	0.5283	0.29601	-1.1996	0.3271	0.30148	-1.2648	0.33057	0.30714	-1.2383	0.28195	0.30058	-1.2581	0.10795	0.26271	-1.3059	0.1079	0.21089	-1.1243	0.047879	0.26368	-1.2078	0.02959	0.28637
